<?xml version="1.0" encoding="UTF-8" standalone="no"?>
<!-- Created with Inkscape (http://www.inkscape.org/) -->

<svg
   xmlns:osb="http://www.openswatchbook.org/uri/2009/osb"
   xmlns:dc="http://purl.org/dc/elements/1.1/"
   xmlns:cc="http://creativecommons.org/ns#"
   xmlns:rdf="http://www.w3.org/1999/02/22-rdf-syntax-ns#"
   xmlns:svg="http://www.w3.org/2000/svg"
   xmlns="http://www.w3.org/2000/svg"
   xmlns:xlink="http://www.w3.org/1999/xlink"
   xmlns:sodipodi="http://sodipodi.sourceforge.net/DTD/sodipodi-0.dtd"
   xmlns:inkscape="http://www.inkscape.org/namespaces/inkscape"
   width="1280"
   height="720"
   viewBox="0 0 1280 720.00001"
   id="svg3336"
   version="1.1"
   inkscape:version="0.91 r13725"
   sodipodi:docname="Home page.svg">
  <defs
     id="defs3338">
    <linearGradient
       id="linearGradient4303"
       osb:paint="solid">
      <stop
         style="stop-color:#000000;stop-opacity:1;"
         offset="0"
         id="stop4305" />
    </linearGradient>
    <inkscape:perspective
       sodipodi:type="inkscape:persp3d"
       inkscape:vp_x="560.5395 : 258.89767 : 1"
       inkscape:vp_y="-619.29813 : -61.565946 : 0"
       inkscape:vp_z="235.24046 : 1404.6952 : 1"
       inkscape:persp3d-origin="336.59314 : 834.4618 : 1"
       id="perspective3346" />
    <inkscape:perspective
       sodipodi:type="inkscape:persp3d"
       inkscape:vp_x="704.82522 : 258.89767 : 1"
       inkscape:vp_y="-619.29813 : -61.565946 : 0"
       inkscape:vp_z="379.52618 : 1404.6952 : 1"
       inkscape:persp3d-origin="480.87886 : 834.46181 : 1"
       id="perspective3346-1" />
    <inkscape:perspective
       sodipodi:type="inkscape:persp3d"
       inkscape:vp_x="862.6824 : 258.89767 : 1"
       inkscape:vp_y="-619.29813 : -61.565946 : 0"
       inkscape:vp_z="537.38332 : 1404.6952 : 1"
       inkscape:persp3d-origin="638.736 : 834.4618 : 1"
       id="perspective3346-5" />
    <inkscape:perspective
       sodipodi:type="inkscape:persp3d"
       inkscape:vp_x="1019.1109 : 258.89767 : 1"
       inkscape:vp_y="-619.29813 : -61.565946 : 0"
       inkscape:vp_z="693.81189 : 1404.6952 : 1"
       inkscape:persp3d-origin="795.16457 : 834.46182 : 1"
       id="perspective3346-1-4" />
    <linearGradient
       inkscape:collect="always"
       xlink:href="#linearGradient4303"
       id="linearGradient4307"
       x1="248.57115"
       y1="601.64789"
       x2="398.57115"
       y2="601.64789"
       gradientUnits="userSpaceOnUse"
       gradientTransform="matrix(0.9933775,0,0,0.99337751,103.57172,-20.301345)" />
    <linearGradient
       gradientTransform="matrix(0.9933775,0,0,0.99337751,303.57173,-20.301379)"
       inkscape:collect="always"
       xlink:href="#linearGradient4303"
       id="linearGradient4307-4"
       x1="248.57115"
       y1="601.64789"
       x2="398.57114"
       y2="601.64789"
       gradientUnits="userSpaceOnUse" />
    <linearGradient
       gradientTransform="matrix(0.99337751,0,0,0.9933775,503.57169,-20.301332)"
       inkscape:collect="always"
       xlink:href="#linearGradient4303"
       id="linearGradient4307-4-0"
       x1="248.57115"
       y1="601.64789"
       x2="398.57114"
       y2="601.64789"
       gradientUnits="userSpaceOnUse" />
    <linearGradient
       inkscape:collect="always"
       xlink:href="#linearGradient4303"
       id="linearGradient4307-7"
       x1="248.57115"
       y1="601.64789"
       x2="398.57114"
       y2="601.64789"
       gradientUnits="userSpaceOnUse"
       gradientTransform="matrix(0.99337753,0,0,0.99337755,103.57168,199.69873)" />
    <linearGradient
       gradientTransform="matrix(0.99337753,0,0,0.99337755,503.57171,199.69872)"
       inkscape:collect="always"
       xlink:href="#linearGradient4303"
       id="linearGradient4307-4-0-6"
       x1="248.57115"
       y1="601.64789"
       x2="398.57114"
       y2="601.64789"
       gradientUnits="userSpaceOnUse" />
    <linearGradient
       gradientTransform="matrix(0.99337753,0,0,0.99337755,303.57171,199.69869)"
       inkscape:collect="always"
       xlink:href="#linearGradient4303"
       id="linearGradient4307-4-6"
       x1="248.57115"
       y1="601.64789"
       x2="398.57114"
       y2="601.64789"
       gradientUnits="userSpaceOnUse" />
    <linearGradient
       gradientTransform="matrix(0.99337753,0,0,0.99337755,503.57169,419.69873)"
       inkscape:collect="always"
       xlink:href="#linearGradient4303"
       id="linearGradient4307-4-0-6-7"
       x1="248.57115"
       y1="601.64789"
       x2="398.57114"
       y2="601.64789"
       gradientUnits="userSpaceOnUse" />
    <linearGradient
       gradientTransform="matrix(0.99337753,0,0,0.99337755,303.5717,419.6987)"
       inkscape:collect="always"
       xlink:href="#linearGradient4303"
       id="linearGradient4307-4-6-8"
       x1="248.57115"
       y1="601.64789"
       x2="398.57114"
       y2="601.64789"
       gradientUnits="userSpaceOnUse" />
    <linearGradient
       inkscape:collect="always"
       xlink:href="#linearGradient4303"
       id="linearGradient4307-7-9"
       x1="248.57115"
       y1="601.64789"
       x2="398.57114"
       y2="601.64789"
       gradientUnits="userSpaceOnUse"
       gradientTransform="matrix(0.99337753,0,0,0.99337755,103.57166,419.69874)" />
    <clipPath
       clipPathUnits="userSpaceOnUse"
       id="clipPath4767-2-5-6">
      <rect
         style="fill:#0000ff;fill-rule:evenodd;stroke:#000000;stroke-width:1px;stroke-linecap:butt;stroke-linejoin:miter;stroke-opacity:1"
         id="rect4769-7-5-6"
         width="212.13203"
         height="119.198"
         x="459.61942"
         y="282.62598" />
    </clipPath>
    <mask
       maskUnits="userSpaceOnUse"
       id="mask4929">
      <g
         id="g4931"
         transform="matrix(0.81479047,0,0,0.79573011,72.857659,132.62185)">
        <rect
           y="203.83406"
           x="472.7514"
           height="160.61426"
           width="230.31477"
           id="rect4933"
           style="fill:#ffffff;fill-rule:evenodd;stroke:#ffffff;stroke-width:1px;stroke-linecap:butt;stroke-linejoin:miter;stroke-opacity:1" />
        <ellipse
           ry="49.456013"
           rx="49.456009"
           cy="210.27353"
           cx="577.81238"
           id="ellipse4935"
           style="fill:#000000;fill-opacity:1;stroke:#000000;stroke-width:1.08797669;stroke-opacity:1" />
      </g>
    </mask>
  </defs>
  <sodipodi:namedview
     id="base"
     pagecolor="#ffffff"
     bordercolor="#666666"
     borderopacity="1.0"
     inkscape:pageopacity="0.0"
     inkscape:pageshadow="2"
     inkscape:zoom="0.7"
     inkscape:cx="664.29038"
     inkscape:cy="395.27927"
     inkscape:document-units="px"
     inkscape:current-layer="layer1"
     showgrid="false"
     units="px"
     inkscape:window-width="1366"
     inkscape:window-height="705"
     inkscape:window-x="-8"
     inkscape:window-y="-8"
     inkscape:window-maximized="1" />
  <metadata
     id="metadata3341">
    <rdf:RDF>
      <cc:Work
         rdf:about="">
        <dc:format>image/svg+xml</dc:format>
        <dc:type
           rdf:resource="http://purl.org/dc/dcmitype/StillImage" />
        <dc:title />
      </cc:Work>
    </rdf:RDF>
  </metadata>
  <g
     inkscape:label="Layer 1"
     inkscape:groupmode="layer"
     id="layer1"
     transform="translate(0,-332.36216)">
    <rect
       style="fill:#ffffff;fill-rule:evenodd;stroke:#000000;stroke-width:1.06342745px;stroke-linecap:butt;stroke-linejoin:miter;stroke-opacity:1"
       id="rect3344"
       width="1158.9365"
       height="658.93658"
       x="60.531712"
       y="392.89386" />
    <g
       id="g5639"
       transform="translate(-41.428572,-14.285714)">
      <rect
         y="415.64117"
         x="565.85046"
         height="38.727642"
         width="195.14784"
         id="rect5569"
         style="fill:#ffffff;fill-opacity:1;fill-rule:evenodd;stroke:#000000;stroke-width:1.27235973px;stroke-linecap:butt;stroke-linejoin:miter;stroke-opacity:1" />
      <text
         transform="scale(1.1177463,0.8946574)"
         sodipodi:linespacing="125%"
         id="text4188"
         y="497.38397"
         x="516.02808"
         style="font-style:normal;font-weight:normal;font-size:35.78652191px;line-height:125%;font-family:sans-serif;letter-spacing:0px;word-spacing:0px;fill:#000000;fill-opacity:1;stroke:none;stroke-width:1px;stroke-linecap:butt;stroke-linejoin:miter;stroke-opacity:1"
         xml:space="preserve"><tspan
           y="497.38397"
           x="516.02808"
           id="tspan4190"
           sodipodi:role="line">Log In</tspan></text>
      <g
         id="g4937"
         transform="matrix(0.16216216,0,0,0.16216216,718.44595,395.15478)">
        <ellipse
           style="fill:#000000;fill-opacity:1;stroke:#000000;stroke-width:1.08797669;stroke-opacity:1"
           id="path4751-0"
           cx="100"
           cy="202.3622"
           rx="49.456009"
           ry="49.456013" />
        <path
           style="fill:#000000;fill-opacity:1;stroke:#000000;stroke-opacity:1"
           d="m 544.47266,317.98047 c -33.47402,-1.7e-4 -60.60997,37.08615 -60.60938,82.83398 11.00097,20.13281 120.51596,11.23337 121.21857,-1.5e-4 5.9e-4,-45.74782 -27.13535,-82.83414 -60.60937,-82.83398 z"
           id="path4753-1-6-8"
           clip-path="url(#clipPath4767-2-5-6)"
           inkscape:connector-curvature="0"
           transform="matrix(1.2273094,0,0,1.2567075,-568.2363,-167.613)"
           sodipodi:nodetypes="ccccc"
           mask="url(#mask4929)" />
      </g>
    </g>
    <rect
       style="fill:#ffffff;stroke:url(#linearGradient4307);stroke-width:0.99337751"
       id="rect3501"
       width="149.00662"
       height="149.00662"
       x="350.4967"
       y="502.85886" />
    <rect
       style="fill:#ffffff;stroke:url(#linearGradient4307-4);stroke-width:0.99337751"
       id="rect3501-8"
       width="149.00662"
       height="149.00662"
       x="550.4967"
       y="502.85886" />
    <rect
       style="fill:#ffffff;stroke:url(#linearGradient4307-4-0);stroke-width:0.99337751"
       id="rect3501-8-5"
       width="149.00662"
       height="149.00662"
       x="750.4967"
       y="502.85886" />
    <rect
       style="fill:#ffffff;stroke:url(#linearGradient4307-7);stroke-width:0.99337757"
       id="rect3501-2"
       width="149.00662"
       height="149.00662"
       x="350.4967"
       y="722.85883" />
    <rect
       style="fill:#ffffff;stroke:url(#linearGradient4307-4-6);stroke-width:0.99337757"
       id="rect3501-8-0"
       width="149.00662"
       height="149.00662"
       x="550.4967"
       y="722.85883" />
    <rect
       style="fill:#ffffff;stroke:url(#linearGradient4307-4-0-6);stroke-width:0.99337757"
       id="rect3501-8-5-7"
       width="149.00662"
       height="149.00662"
       x="750.4967"
       y="722.85883" />
    <rect
       style="fill:#ffffff;stroke:url(#linearGradient4307-7-9);stroke-width:0.99337757"
       id="rect3501-2-6"
       width="149.00662"
       height="149.00662"
       x="350.49667"
       y="942.85883" />
    <rect
       style="fill:#ffffff;stroke:url(#linearGradient4307-4-6-8);stroke-width:0.99337757"
       id="rect3501-8-0-6"
       width="149.00662"
       height="149.00662"
       x="550.4967"
       y="942.85883" />
    <rect
       style="fill:#ffffff;stroke:url(#linearGradient4307-4-0-6-7);stroke-width:0.99337757"
       id="rect3501-8-5-7-5"
       width="149.00662"
       height="149.00662"
       x="750.49664"
       y="942.85883" />
    <flowRoot
       xml:space="preserve"
       id="flowRoot4158"
       style="font-style:normal;font-weight:normal;font-size:40px;line-height:125%;font-family:sans-serif;letter-spacing:0px;word-spacing:0px;fill:#000000;fill-opacity:1;stroke:none;stroke-width:1px;stroke-linecap:butt;stroke-linejoin:miter;stroke-opacity:1"
       transform="translate(0,332.36216)"><flowRegion
         id="flowRegion4160"><rect
           id="rect4162"
           width="134.28572"
           height="42.857143"
           x="355.71429"
           y="284.28571" /></flowRegion><flowPara
         id="flowPara4164">Ghots</flowPara></flowRoot>    <text
       xml:space="preserve"
       style="font-style:normal;font-weight:normal;font-size:47.96963501px;line-height:125%;font-family:sans-serif;letter-spacing:0px;word-spacing:0px;fill:#000000;fill-opacity:1;stroke:none;stroke-width:1px;stroke-linecap:butt;stroke-linejoin:miter;stroke-opacity:1"
       x="338.04773"
       y="703.34515"
       id="text4166"
       sodipodi:linespacing="125%"
       transform="scale(1.0312482,0.96969866)"><tspan
         sodipodi:role="line"
         id="tspan4168"
         x="338.04773"
         y="703.34515"
         style="font-size:23.9848175px">Ghost Walks</tspan></text>
    <text
       xml:space="preserve"
       style="font-style:normal;font-weight:normal;font-size:47.96963501px;line-height:125%;font-family:sans-serif;letter-spacing:0px;word-spacing:0px;fill:#000000;fill-opacity:1;stroke:none;stroke-width:1px;stroke-linecap:butt;stroke-linejoin:miter;stroke-opacity:1"
       x="531.98749"
       y="703.34515"
       id="text4166-6"
       sodipodi:linespacing="125%"
       transform="scale(1.0312482,0.96969866)"><tspan
         sodipodi:role="line"
         id="tspan4168-1"
         x="531.98749"
         y="703.34515"
         style="font-size:23.9848175px">Historical</tspan></text>
    <text
       xml:space="preserve"
       style="font-style:normal;font-weight:normal;font-size:47.96963501px;line-height:125%;font-family:sans-serif;letter-spacing:0px;word-spacing:0px;fill:#000000;fill-opacity:1;stroke:none;stroke-width:1px;stroke-linecap:butt;stroke-linejoin:miter;stroke-opacity:1"
       x="725.92719"
       y="703.34515"
       id="text4166-1"
       sodipodi:linespacing="125%"
       transform="scale(1.0312482,0.96969867)"><tspan
         sodipodi:role="line"
         id="tspan4168-8"
         x="725.92719"
         y="703.34515"
         style="font-size:23.9848175px">Random</tspan></text>
    <text
       xml:space="preserve"
       style="font-style:normal;font-weight:normal;font-size:47.96963501px;line-height:125%;font-family:sans-serif;letter-spacing:0px;word-spacing:0px;fill:#000000;fill-opacity:1;stroke:none;stroke-width:1px;stroke-linecap:butt;stroke-linejoin:miter;stroke-opacity:1"
       x="338.04785"
       y="940.53186"
       id="text4166-9"
       sodipodi:linespacing="125%"
       transform="scale(1.0312478,0.96969903)"><tspan
         sodipodi:role="line"
         id="tspan4168-11"
         x="338.04785"
         y="940.53186"
         style="font-size:23.9848175px">Something</tspan></text>
    <text
       xml:space="preserve"
       style="font-style:normal;font-weight:normal;font-size:47.96963501px;line-height:125%;font-family:sans-serif;letter-spacing:0px;word-spacing:0px;fill:#000000;fill-opacity:1;stroke:none;stroke-width:1px;stroke-linecap:butt;stroke-linejoin:miter;stroke-opacity:1"
       x="531.98755"
       y="940.53186"
       id="text4166-6-8"
       sodipodi:linespacing="125%"
       transform="scale(1.0312478,0.96969903)"><tspan
         sodipodi:role="line"
         id="tspan4168-1-5"
         x="531.98755"
         y="940.53186"
         style="font-size:23.9848175px">Else</tspan></text>
    <text
       xml:space="preserve"
       style="font-style:normal;font-weight:normal;font-size:47.96963501px;line-height:125%;font-family:sans-serif;letter-spacing:0px;word-spacing:0px;fill:#000000;fill-opacity:1;stroke:none;stroke-width:1px;stroke-linecap:butt;stroke-linejoin:miter;stroke-opacity:1"
       x="725.92719"
       y="940.53186"
       id="text4166-1-3"
       sodipodi:linespacing="125%"
       transform="scale(1.0312478,0.96969903)"><tspan
         sodipodi:role="line"
         id="tspan4168-8-0"
         x="725.92719"
         y="940.53186"
         style="font-size:23.9848175px">Here</tspan></text>
    <text
       xml:space="preserve"
       style="font-style:normal;font-weight:normal;font-size:40px;line-height:125%;font-family:sans-serif;letter-spacing:0px;word-spacing:0px;fill:#000000;fill-opacity:1;stroke:none;stroke-width:1px;stroke-linecap:butt;stroke-linejoin:miter;stroke-opacity:1"
       x="70.000008"
       y="436.64789"
       id="text4226"
       sodipodi:linespacing="125%"><tspan
         sodipodi:role="line"
         id="tspan4228"
         x="70.000008"
         y="436.64789">Logo here</tspan></text>
    <rect
       style="fill:#000000"
       id="rect4232"
       width="34.285713"
       height="34.285713"
       x="71.428574"
       y="448.07645" />
    <path
       style="fill:none;fill-rule:evenodd;stroke:#000000;stroke-width:1px;stroke-linecap:butt;stroke-linejoin:miter;stroke-opacity:1"
       d="m 480.06382,612.1547 c 0.25811,-3.04874 -1.91836,0.10195 -2.52538,-0.50508 -0.11905,-0.11905 0.0753,-0.35449 0,-0.50507 -0.10648,-0.21296 -0.33672,-0.33672 -0.50508,-0.50508 -0.16836,-0.16836 -0.33672,-0.33672 -0.50508,-0.50508 -0.16837,-0.16836 -0.42979,-0.2792 -0.50508,-0.50507 -0.10648,-0.31944 0.15058,-0.70899 0,-1.01016 -0.15059,-0.30117 -0.70899,0.15059 -1.01016,0 -0.21295,-0.10648 -0.30696,-0.373 -0.50507,-0.50507 -0.31324,-0.20883 -0.69692,-0.29626 -1.01015,-0.50508 -1.03478,-0.68985 -0.19255,-0.89017 -0.50508,-1.51523 -0.10648,-0.21296 -0.3986,-0.29212 -0.50508,-0.50507 -0.0753,-0.15059 0.11905,-0.38603 0,-0.50508 -0.11904,-0.11905 -0.38603,0.11905 -0.50507,0 -0.11905,-0.11905 0.0753,-0.35449 0,-0.50508 -0.10648,-0.21296 -0.3986,-0.29211 -0.50508,-0.50507 -0.14796,-0.29591 0.0931,-2.15319 0,-2.52538 -0.0913,-0.36523 -0.38603,-0.65301 -0.50508,-1.01016 -0.13551,-0.40653 0.16138,-1.69755 0,-2.0203 -0.10648,-0.21296 -0.39859,-0.29212 -0.50507,-0.50508 -0.20203,-0.40406 0.20203,-1.11117 0,-1.51523 -0.10648,-0.21296 -0.42979,-0.2792 -0.50508,-0.50507 -0.10648,-0.31944 0,-0.67344 0,-1.01016 0,-0.1287 0.033,-3.45295 0,-3.53553 -0.17685,-0.44213 -0.74601,-0.61394 -1.01015,-1.01015 -0.11282,-0.16923 0.10291,-2.61882 0,-3.03046 -0.0913,-0.36522 -0.33672,-0.67343 -0.50508,-1.01015 0,-0.67344 0.13207,-1.35995 0,-2.02031 -0.0467,-0.23347 -0.33671,-0.33671 -0.50507,-0.50507 -0.16836,-0.67344 -0.41898,-1.33151 -0.50508,-2.02031 -0.12529,-1.00235 0,-2.0203 0,-3.03046 0,-1.85194 0,-3.70389 0,-5.55584 0,-3.19881 0,-6.39763 0,-9.59644 0,-1.01016 0,-2.02031 0,-3.03046 0,-0.33672 0.12505,-0.69752 0,-1.01015 -0.22544,-0.56361 -0.84339,-0.93156 -1.01015,-1.51523 -0.18501,-0.64753 0.25011,-1.39504 0,-2.02031 -0.13982,-0.34953 -0.81647,-0.18226 -1.01016,-0.50507 -0.35714,-0.59524 -0.23163,-1.38228 -0.50507,-2.02031 -0.23912,-0.55795 -0.73868,-0.97229 -1.01015,-1.51523 -0.40547,-0.81092 -0.57601,-1.72945 -1.01016,-2.52538 0.704,-2.42036 -1.72202,-2.33049 -2.52538,-3.53553 -0.20882,-0.31324 -0.23888,-0.74396 -0.50507,-1.01016 -0.42924,-0.42923 -1.12662,-0.54382 -1.51523,-1.01015 -0.48201,-0.57841 -0.59251,-1.39383 -1.01016,-2.0203 -0.26414,-0.39622 -0.67343,-0.67344 -1.01015,-1.01016 -0.50507,-0.50507 -1.01015,-1.01015 -1.51523,-1.51523 -0.33671,-0.33671 -0.61393,-0.74601 -1.01015,-1.01015 -0.81682,-0.54454 -1.70856,-0.97068 -2.52538,-1.51523 -1.44528,-0.96352 0.77358,-0.0946 -1.51523,-1.01015 -5.08423,-2.03369 1.07238,0.39436 -2.52538,-0.50508 -1.5495,-0.38737 -3.03046,-1.01015 -4.54569,-1.51522 -0.50507,-0.16836 -0.98818,-0.42979 -1.51523,-0.50508 -0.66666,-0.0952 -1.34687,0 -2.0203,0 -0.50508,0 -1.01015,0 -1.51523,0 -0.16836,0 -0.34174,0.0408 -0.50508,0 -1.91883,-0.47971 -1.33112,-0.69524 -3.53553,-1.01015 -0.5,-0.0714 -1.01015,0 -1.51523,0 -0.50508,0 -1.01015,0 -1.51523,0 -0.34876,0 -1.86674,-0.0768 -2.0203,0 -0.21296,0.10648 -0.29212,0.39859 -0.50508,0.50507 -0.15058,0.0753 -0.33672,0 -0.50508,0 -0.33671,0.33672 -0.61393,0.74601 -1.01015,1.01016 -0.14008,0.0934 -0.35449,-0.0753 -0.50507,0 -0.21296,0.10647 -0.30092,0.38257 -0.50508,0.50507 -0.64563,0.38738 -1.36659,0.6366 -2.02031,1.01015 -0.52704,0.30117 -1.01015,0.67344 -1.51522,1.01016 -1.01016,0.67343 -2.05922,1.29187 -3.03046,2.0203 -0.7369,0.55268 -0.77833,1.46763 -1.51523,2.02031 -0.48562,0.36421 -1.12018,0.54926 -1.51523,1.01015 -1.04871,1.2235 -1.78794,3.07081 -2.52538,4.54569 -0.33672,0.67343 -0.80331,1.29635 -1.01015,2.0203 -0.13876,0.48564 0,1.01015 0,1.51523 0,0.33672 0.15058,0.70898 0,1.01015 -0.37647,0.75293 -1.13877,1.26738 -1.51523,2.02031 -0.31044,0.62087 -0.36894,1.33962 -0.50508,2.0203 -0.033,0.16509 0.0753,0.35449 0,0.50508 -0.10648,0.21296 -0.44733,0.27409 -0.50508,0.50508 -0.16333,0.65332 0,1.34687 0,2.0203 0,1.34687 0,2.69374 0,4.04061 0,1.85195 0,3.70389 0,5.55584 0,0.67343 0,1.34687 0,2.0203 0,0.16835 0.0408,0.34175 0,0.50508 -0.12912,0.5165 -0.40066,0.99317 -0.50507,1.51523 -0.066,0.33018 0.0554,0.67802 0,1.01015 -0.11412,0.68472 -0.41898,1.33151 -0.50508,2.02031 -0.0835,0.66823 0.16333,1.36697 0,2.0203 -0.0408,0.16333 -0.33672,0 -0.50507,0 -0.16836,0.33672 -0.43125,0.641 -0.50508,1.01015 -0.0991,0.49527 0.18758,1.04628 0,1.51523 -0.17685,0.44214 -0.7739,0.59671 -1.01015,1.01016 -0.44982,0.78718 -0.60469,1.71445 -1.01016,2.52538 -0.27147,0.54294 -0.73868,0.97229 -1.01015,1.51523 -0.0753,0.15058 0,0.33671 0,0.50507 0,0.33672 0.10648,0.69072 0,1.01016 -0.0753,0.22587 -0.39859,0.29211 -0.50507,0.50507 -0.57341,1.14682 -0.94182,2.38872 -1.51523,3.53554 -1.83487,3.66972 -0.14118,-0.29332 -2.02031,2.52538 -0.41764,0.62647 -0.57252,1.40762 -1.01015,2.0203 -0.81011,1.13416 -3.97619,3.47112 -4.54569,4.04061 -0.11904,0.11905 0.0753,0.35449 0,0.50508 -0.10648,0.21296 -0.33671,0.33672 -0.50507,0.50507 -0.33672,0.33672 -0.71268,0.63831 -1.01016,1.01016 -0.3792,0.474 -0.64593,1.0296 -1.01015,1.51523 -0.30394,0.40525 -1.77302,1.82247 -2.0203,2.0203 -0.47401,0.37921 -1.086,0.58092 -1.51523,1.01015 -0.2662,0.2662 -0.33672,0.67344 -0.50508,1.01016 -0.67343,0.50507 -1.37362,0.97632 -2.0203,1.51522 -0.36582,0.30485 -0.72444,0.62921 -1.01016,1.01016 -0.22587,0.30117 -0.19184,0.80133 -0.50507,1.01015 -0.28017,0.18678 -0.70899,-0.15058 -1.01015,0 -0.80766,0.40383 -1.26305,1.51546 -2.02031,2.02031 -0.31324,0.20882 -0.70898,0.27919 -1.01015,0.50507 -0.38095,0.28572 -0.61394,0.74601 -1.01016,1.01015 -0.14008,0.0934 -0.35449,-0.0753 -0.50507,0 -0.1341,0.0671 -1.44818,1.38113 -1.51523,1.51523 -0.0753,0.15059 0.11905,0.38603 0,0.50508 -1.16074,1.16074 -1.01015,-0.13094 -1.01015,1.01015 0,0.67369 0,0.33647 0,1.01015 0,0.16836 0,0.67344 0,0.50508 0,-1.97305 -0.15059,-0.65566 0.50507,0 0.11905,0.11905 0.33672,0 0.50508,0 0.16836,0 0.33672,0 0.50508,0 0.33671,0 0.67343,0 1.01015,0 0.33672,0 0.70898,0.15058 1.01015,0 0.15059,-0.0753 -0.15058,-0.42978 0,-0.50508 0.30117,-0.15059 0.69072,0.10648 1.01015,0 0.22588,-0.0753 0.2792,-0.42978 0.50508,-0.50507 0.31944,-0.10648 0.68349,0.0817 1.01015,0 0.36522,-0.0913 0.66062,-0.36526 1.01016,-0.50508 1.02671,-0.41068 1.63701,-0.4179 2.52538,-1.01015 1.01101,-0.67401 -0.0869,-0.55239 1.51523,-1.01015 0.82543,-0.23584 1.67859,-0.36395 2.52538,-0.50509 0.50507,-0.0842 1.01015,0.16837 1.51523,0 0.22587,-0.0753 0.27919,-0.42977 0.50507,-0.50507 0.47916,-0.15972 1.01015,0 1.51523,0 0.50508,0 1.01015,0 1.51523,0 0.33672,0 0.69071,-0.10649 1.01015,0 0.35714,0.11904 0.66062,0.36526 1.01015,0.50507 2.09005,0.83603 1.23629,0.13569 3.53554,1.51524 0.20416,0.1225 0.3146,0.36222 0.50507,0.50508 0.48563,0.36421 1.04123,0.63094 1.51523,1.01015 1.85631,1.48504 0.0825,0.68781 2.52538,2.0203 1.32198,0.72108 2.69374,1.34687 4.04061,2.02031 0.67344,0.33672 1.34688,0.67343 2.02031,1.01015 0.33672,0.16836 0.65034,0.39436 1.01015,0.50508 1.8347,0.56452 3.71011,0.98787 5.55584,1.51523 0.51191,0.14626 0.99008,0.41755 1.51523,0.50507 0.66427,0.11071 1.34687,0 2.02031,0 1.51522,0 3.03045,0 4.54568,0 1.17851,0 2.35702,0 3.53554,0 0.67343,0 1.35994,0.13207 2.0203,0 0.23347,-0.0467 0.29212,-0.39859 0.50508,-0.50507 0.95238,-0.47619 2.07807,-0.53397 3.03045,-1.01016 0.54295,-0.27147 0.97229,-0.73868 1.51523,-1.01015 0.47619,-0.23809 1.07225,-0.20975 1.51523,-0.50508 0.14009,-0.0934 -0.0934,-0.36499 0,-0.50507 0.26415,-0.39622 0.61394,-0.74601 1.01016,-1.01015 0.14008,-0.0934 0.35449,0.0753 0.50507,0 0.54294,-0.27147 0.95162,-0.78471 1.51523,-1.01016 0.31263,-0.12505 0.70066,0.13264 1.01015,0 0.90232,-0.3867 1.64733,-1.0762 2.52538,-1.51523 1.0435,-0.52175 1.53032,-0.50507 2.52539,-0.50507 0.33671,0 0.68348,0.0817 1.01015,0 0.36522,-0.0913 0.67343,-0.33672 1.01015,-0.50508 0.50508,-0.16836 0.99317,-0.40066 1.51523,-0.50508 0.10846,-0.0217 2.84745,-0.061 3.03046,0 0.35714,0.11905 0.67343,0.33672 1.01015,0.50508 0.33672,0.16836 0.70898,0.2792 1.01015,0.50508 0.38095,0.28571 0.61394,0.74601 1.01015,1.01015 0.28017,0.18678 0.72999,-0.18678 1.01016,0 0.39621,0.26414 0.60182,0.76515 1.01015,1.01015 1.02534,0.61521 1.93579,0.50508 3.03046,0.50508 0.33671,0 0.69752,-0.12506 1.01015,0 0.56361,0.22544 0.93935,0.81819 1.51523,1.01015 0.49054,0.16352 1.85316,0 2.52538,0 1.85195,0 3.70389,0 5.55584,0 0.33672,0 0.68349,0.0817 1.01015,0 0.65974,-0.16493 2.13742,-1.28245 2.52539,-1.51523 0.32282,-0.19369 0.69692,-0.29625 1.01016,-0.50507 0.1981,-0.13207 0.30696,-0.37301 0.50507,-0.50508 0.31324,-0.20882 0.74396,-0.23888 1.01015,-0.50509 0.2662,-0.26619 0.29626,-0.69691 0.50508,-1.01014 0.13207,-0.19812 0.47141,-0.26938 0.50508,-0.50508 0.14285,-1 0,-2.02031 0,-3.03046 z"
       id="path4502"
       inkscape:connector-curvature="0" />
    <circle
       style="fill:#ececec;fill-opacity:1;stroke:#000000;stroke-opacity:1"
       id="path4504"
       cx="426.02063"
       cy="560.13184"
       r="4.5456862" />
    <circle
       style="fill:#ececec;fill-opacity:1;stroke:#000000;stroke-opacity:1"
       id="path4504-0"
       cx="448.74908"
       cy="561.14197"
       r="4.5456862" />
    <text
       xml:space="preserve"
       style="font-style:normal;font-weight:normal;font-size:40px;line-height:125%;font-family:sans-serif;letter-spacing:0px;word-spacing:0px;fill:#000000;fill-opacity:1;stroke:none;stroke-width:1px;stroke-linecap:butt;stroke-linejoin:miter;stroke-opacity:1"
       x="-222.85715"
       y="599.505"
       id="text4187"
       sodipodi:linespacing="125%"><tspan
         sodipodi:role="line"
         id="tspan4189"
         x="-222.85715"
         y="599.505"
         style="font-style:italic">Click here</tspan></text>
    <path
       style="fill:none;fill-rule:evenodd;stroke:#000000;stroke-width:1px;stroke-linecap:butt;stroke-linejoin:miter;stroke-opacity:1"
       d="m -32.857143,590.93359 c 93.809524,0 187.619043,0 281.428573,0 11.42857,0 22.85714,0 34.28571,0 2.38095,0 4.76191,0 7.14286,0 1.42857,0 2.89979,0.34648 4.28571,0 0.65333,-0.16333 0.95238,-0.95238 1.42857,-1.42857 4.76191,-0.47619 9.53284,-0.86941 14.28572,-1.42857 19.83319,-2.33332 3.07474,-0.0544 14.28571,-2.85715 0.92395,-0.23098 2.06472,0.52829 2.85715,0 1.12066,-0.7471 1.73647,-2.11003 2.85714,-2.85714 0.39621,-0.26414 1.00265,0.21296 1.42857,0 0.60234,-0.30117 0.82623,-1.1274 1.42857,-1.42857 1.34687,-0.67344 2.93885,-0.75514 4.28572,-1.42857 2.4835,-1.24175 4.543,-3.31077 7.14285,-4.28572 1.33762,-0.5016 3.06073,0.735 4.28572,0 1.47225,-0.88335 1.38489,-3.40236 2.85714,-4.28571 1.22499,-0.73499 2.8998,0.34648 4.28571,0 0.65333,-0.16333 0.82624,-1.1274 1.42858,-1.42857 0.42591,-0.21296 0.95238,0 1.42857,0 0.47619,-0.47619 0.82623,-1.1274 1.42857,-1.42857 0.42592,-0.21296 1.00265,0.21296 1.42857,0 0.60234,-0.30117 0.86824,-1.05502 1.42857,-1.42857 0.88596,-0.59065 1.97118,-0.83793 2.85714,-1.42858 0.56034,-0.37355 0.82624,-1.1274 1.42858,-1.42857 0.42591,-0.21296 1.09185,0.33672 1.42857,0 1.95838,-1.95838 1.42857,-4.71235 1.42857,-7.14285 0,-0.47619 0,-0.95239 0,-1.42858 0,-0.47619 -0.21296,-1.00265 0,-1.42857 0.30117,-0.60234 1.05502,-0.86824 1.42857,-1.42857 1.57788,-2.36682 1.42857,-3.24456 1.42857,-5.71428 0,-0.47619 0,-0.95239 0,-1.42858 0,-0.47619 -0.47619,-1.42857 0,-1.42857 0.47619,0 0,1.90476 0,1.42857 0,-0.95238 0.42592,-2.0053 0,-2.85714 -0.21296,-0.42592 -1.42857,0.47619 -1.42857,0 0,-0.47619 0.95238,0 1.42857,0"
       id="path4193"
       inkscape:connector-curvature="0" />
    <text
       xml:space="preserve"
       style="font-style:normal;font-weight:normal;font-size:40px;line-height:125%;font-family:sans-serif;letter-spacing:0px;word-spacing:0px;fill:#000000;fill-opacity:1;stroke:none;stroke-width:1px;stroke-linecap:butt;stroke-linejoin:miter;stroke-opacity:1"
       x="-285.71429"
       y="449.505"
       id="text4195"
       sodipodi:linespacing="125%"><tspan
         sodipodi:role="line"
         id="tspan4197"
         x="-285.71429"
         y="449.505">Menu, yet</tspan><tspan
         sodipodi:role="line"
         x="-285.71429"
         y="499.505"
         id="tspan4199">to be decided</tspan></text>
    <path
       style="fill:none;fill-rule:evenodd;stroke:#000000;stroke-width:1px;stroke-linecap:butt;stroke-linejoin:miter;stroke-opacity:1"
       d="m -42.857143,443.79073 c 5.269789,8.13854 14.592334,3.98767 21.428572,7.14286 4.078891,1.88256 7.281766,5.41502 11.428571,7.14286 1.7582418,0.7326 3.8173463,-0.17245 5.7142857,0 5.04231162,-2.46558 9.6894295,2.20053 14.2857143,2.85714 3.299832,0.4714 6.731398,-0.65372 10,0 1.044117,0.20882 1.904762,0.95238 2.857143,1.42857 2.380952,0.47619 4.721904,1.24234 7.142857,1.42857 3.798303,0.29218 7.619048,0 11.428571,0 6.666667,0 13.333334,0 20,0 3.333334,0 6.666667,0 10,0 1.428572,0 3.007962,0.63888 4.285715,0 0.952381,-0.47619 0.439934,-2.46169 1.428571,-2.85714 14.237855,0 1.591974,1.34687 7.142857,-1.42857 1.277753,-0.63888 3.007961,0.63887 4.285715,0 0.23591,-0.11796 0,-3.90564 0,-4.28572 0,-1.42857 0,-2.85714 0,-4.28571 0,-0.47619 0.336717,-1.09186 0,-1.42857 -0.336718,-0.33672 -1.091854,0.33671 -1.428572,0 -0.336717,-0.33672 0.212959,-1.00266 0,-1.42857 -0.18965,-0.37931 -3.906413,-4.09607 -4.285714,-4.28572 -0.851836,-0.42592 -2.183708,0.67344 -2.857143,0 -0.336718,-0.33672 0.336718,-1.09185 0,-1.42857 -0.336718,-0.33672 -1.091854,-0.33672 -1.428571,0 -0.336718,0.33672 0,0.95238 0,1.42857 0,1.34548 0.270886,6.3302 0,7.14286 -0.212959,0.63888 -1.127403,0.82623 -1.428572,1.42857 -0.638876,1.27775 0.638877,3.00796 0,4.28571 -0.212959,0.42592 -1.091854,-0.33671 -1.428571,0 -0.336718,0.33672 0.212959,1.00266 0,1.42858 -0.30117,0.60233 -0.952381,0.95238 -1.428572,1.42857"
       id="path4201"
       inkscape:connector-curvature="0" />
  </g>
</svg>
